<?xml version="1.0" encoding="utf-8"?>
<!-- Generator: Adobe Illustrator 24.1.1, SVG Export Plug-In . SVG Version: 6.00 Build 0)  -->
<svg version="1.1" id="Layer_1" xmlns="http://www.w3.org/2000/svg" xmlns:xlink="http://www.w3.org/1999/xlink" x="0px" y="0px"
	 viewBox="0 0 1000 500" style="enable-background:new 0 0 1000 500;" xml:space="preserve">
<style type="text/css">
	.st0{fill:#54E360;}
	.st1{fill:#1FBF66;}
	.st2{fill:#E7F0EF;}
	.st3{fill:#C5E1E6;}
	.st4{fill:url(#SVGID_1_);}
	.st5{fill:url(#SVGID_2_);}
	.st6{fill:url(#SVGID_3_);}
	.st7{fill:url(#SVGID_4_);}
	.st8{fill:url(#SVGID_5_);}
	.st9{fill:url(#SVGID_6_);}
	.st10{fill:url(#SVGID_7_);}
	.st11{fill:url(#SVGID_8_);}
	.st12{fill:url(#SVGID_9_);}
	.st13{fill:url(#SVGID_10_);}
</style>
<g>
	<g>
		<g>
			<path class="st0" d="M256.4,155.6c-25.2-25.2-58.8-39.1-94.4-39.1c-35.7,0-69.2,13.9-94.4,39.1S28.4,214.3,28.4,250
				c0,35.7,13.9,69.2,39.1,94.4c25.2,25.2,58.8,39.1,94.4,39.1c35.7,0,69.2-13.9,94.4-39.1c25.2-25.2,39.1-58.8,39.1-94.4
				C295.5,214.3,281.6,180.8,256.4,155.6z"/>
			<path class="st1" d="M256.4,155.6c-25.2-25.2-58.8-39.1-94.4-39.1v267.1c35.7,0,69.2-13.9,94.4-39.1
				c25.2-25.2,39.1-58.8,39.1-94.4C295.5,214.3,281.6,180.8,256.4,155.6z"/>
		</g>
		<g>
			<path class="st2" d="M258.3,217.2h-61v-56.7c0-5.8-5-10.5-11.2-10.5h-48.2c-6.2,0-11.2,4.7-11.2,10.5v56.7h-61
				c-6.2,0-11.2,4.7-11.2,10.5v44.8c0,5.8,5,10.5,11.2,10.5h61v56.7c0,5.8,5,10.5,11.2,10.5H186c6.2,0,11.2-4.7,11.2-10.5v-56.7h61
				c6.2,0,11.2-4.7,11.2-10.5v-44.8C269.5,221.8,264.5,217.2,258.3,217.2z"/>
			<path class="st3" d="M258.3,217.2h-61v-56.7c0-5.8-5-10.5-11.2-10.5h-24.1v200H186c6.2,0,11.2-4.7,11.2-10.5v-56.7h61
				c6.2,0,11.2-4.7,11.2-10.5v-44.8C269.5,221.8,264.5,217.2,258.3,217.2z"/>
		</g>
	</g>
	<g>
		<linearGradient id="SVGID_1_" gradientUnits="userSpaceOnUse" x1="364.6005" y1="398.6126" x2="517.5189" y2="250.8297">
			<stop  offset="0.1235" style="stop-color:#E6B71C"/>
			<stop  offset="0.154" style="stop-color:#EABC1F"/>
			<stop  offset="0.2701" style="stop-color:#F3C728"/>
			<stop  offset="0.4333" style="stop-color:#F8CE2D"/>
			<stop  offset="0.8868" style="stop-color:#FAD02E"/>
		</linearGradient>
		<polygon class="st4" points="491.2,307 491.2,350 338.6,350 389.5,307 		"/>
		<linearGradient id="SVGID_2_" gradientUnits="userSpaceOnUse" x1="298.545" y1="301.9839" x2="425.546" y2="159.5622">
			<stop  offset="0" style="stop-color:#FAD02E"/>
			<stop  offset="0.4528" style="stop-color:#F8CE2E"/>
			<stop  offset="0.7039" style="stop-color:#F0C72C"/>
			<stop  offset="0.8557" style="stop-color:#E6BE2B"/>
		</linearGradient>
		<polygon class="st5" points="338.6,150 389.5,150 389.5,307 338.6,350 		"/>
	</g>
	<linearGradient id="SVGID_3_" gradientUnits="userSpaceOnUse" x1="516.2222" y1="277.1267" x2="595.1957" y2="218.8006">
		<stop  offset="0" style="stop-color:#FAD02E"/>
		<stop  offset="0.4824" style="stop-color:#F7CE2D"/>
		<stop  offset="0.8149" style="stop-color:#EEC72C"/>
		<stop  offset="0.986" style="stop-color:#E6C02A"/>
	</linearGradient>
	<polygon class="st6" points="578.5,350 578.4,150 527.6,150 527.6,150.2 527.2,150.2 527.3,263.4 527.6,263.4 527.7,350 	"/>
	<g>
		<linearGradient id="SVGID_4_" gradientUnits="userSpaceOnUse" x1="557.1571" y1="294.4639" x2="776.3088" y2="98.2834">
			<stop  offset="0" style="stop-color:#FAD02E"/>
			<stop  offset="0.4497" style="stop-color:#F7CE2E"/>
			<stop  offset="0.7196" style="stop-color:#EFC62C"/>
			<stop  offset="0.8752" style="stop-color:#E6BE2B"/>
		</linearGradient>
		<polygon class="st7" points="614.5,150 665.4,193.3 774.2,193.3 774.2,150 		"/>
		<linearGradient id="SVGID_5_" gradientUnits="userSpaceOnUse" x1="737.159" y1="280.9296" x2="675.3146" y2="217.3376">
			<stop  offset="0" style="stop-color:#E6BF2A"/>
			<stop  offset="0.4023" style="stop-color:#F0C72C"/>
			<stop  offset="1" style="stop-color:#FAD02E"/>
		</linearGradient>
		<rect x="665.4" y="235.4" class="st8" width="96.8" height="43"/>
		<linearGradient id="SVGID_6_" gradientUnits="userSpaceOnUse" x1="590.8986" y1="312.3879" x2="650.113" y2="237.0682">
			<stop  offset="0" style="stop-color:#FAD02E"/>
			<stop  offset="0.4565" style="stop-color:#F7CD2D"/>
			<stop  offset="0.8575" style="stop-color:#ECC32B"/>
			<stop  offset="1" style="stop-color:#E6BE2A"/>
		</linearGradient>
		<polygon class="st9" points="614.5,350 665.4,350 665.4,193.3 614.5,150 		"/>
	</g>
	<g>
		<linearGradient id="SVGID_7_" gradientUnits="userSpaceOnUse" x1="834.0808" y1="208.2892" x2="1125.7804" y2="16.5612">
			<stop  offset="0.1599" style="stop-color:#E6BE2A"/>
			<stop  offset="0.2829" style="stop-color:#F1C82C"/>
			<stop  offset="0.4604" style="stop-color:#F8CE2E"/>
			<stop  offset="0.9536" style="stop-color:#FAD02E"/>
		</linearGradient>
		<polygon class="st10" points="810.2,150.1 861.6,192.4 970.7,192.4 970.7,150 		"/>
		<linearGradient id="SVGID_8_" gradientUnits="userSpaceOnUse" x1="790.5071" y1="114.2918" x2="960.1899" y2="304.3571">
			<stop  offset="0.3827" style="stop-color:#E6BF2B"/>
			<stop  offset="0.7765" style="stop-color:#FAD02E"/>
		</linearGradient>
		<rect x="861.6" y="230" class="st11" width="100.2" height="40"/>
		<linearGradient id="SVGID_9_" gradientUnits="userSpaceOnUse" x1="874.8842" y1="182.917" x2="788.1613" y2="285.2085">
			<stop  offset="0" style="stop-color:#FAD02E"/>
			<stop  offset="0.6214" style="stop-color:#F8CE2E"/>
			<stop  offset="0.845" style="stop-color:#F1C92C"/>
			<stop  offset="1" style="stop-color:#E6BF2A"/>
		</linearGradient>
		<polygon class="st12" points="810.3,150.1 861.6,192.4 861.6,307.6 810.7,350 		"/>
		<linearGradient id="SVGID_10_" gradientUnits="userSpaceOnUse" x1="839.6791" y1="420.5847" x2="963.0131" y2="251.4888">
			<stop  offset="0.4209" style="stop-color:#E6BB2A"/>
			<stop  offset="0.4239" style="stop-color:#E7BC2A"/>
			<stop  offset="0.5078" style="stop-color:#F2C72C"/>
			<stop  offset="0.6258" style="stop-color:#F8CE2E"/>
			<stop  offset="0.9536" style="stop-color:#FAD02E"/>
		</linearGradient>
		<polygon class="st13" points="810.7,350 861.6,307.6 971.6,307.6 971.6,350 		"/>
	</g>
</g>
</svg>
