<?xml version="1.0" encoding="utf-8"?>
<!-- Generator: Adobe Illustrator 24.1.1, SVG Export Plug-In . SVG Version: 6.00 Build 0)  -->
<svg version="1.1" id="Layer_1" xmlns="http://www.w3.org/2000/svg" xmlns:xlink="http://www.w3.org/1999/xlink" x="0px" y="0px"
	 viewBox="0 0 512 512" style="enable-background:new 0 0 512 512;" xml:space="preserve">
<style type="text/css">
	.st0{fill:#54E360;}
	.st1{fill:#1FBF66;}
	.st2{fill:#E7F0EF;}
	.st3{fill:#C5E1E6;}
</style>
<g>
	<path class="st0" d="M437,75C388.7,26.6,324.4,0,256,0C187.6,0,123.3,26.6,75,75S0,187.6,0,256c0,68.4,26.6,132.7,75,181
		s112.6,75,181,75c68.4,0,132.7-26.6,181-75s75-112.6,75-181C512,187.6,485.4,123.3,437,75z"/>
	<path class="st1" d="M437,75C388.7,26.6,324.4,0,256,0v512c68.4,0,132.7-26.6,181-75s75-112.6,75-181C512,187.6,485.4,123.3,437,75
		z"/>
</g>
<g>
	<path class="st2" d="M427.7,193H319V84.3c0-11.1-9-20-20-20h-85.9c-11.1,0-20,9-20,20V193H84.3c-11.1,0-20,9-20,20v85.9
		c0,11.1,9,20,20,20H193v108.8c0,11.1,9,20,20,20h85.9c11.1,0,20-9,20-20V319h108.8c11.1,0,20-9,20-20v-85.9
		C447.8,202,438.8,193,427.7,193z"/>
	<path class="st3" d="M427.7,193H319V84.3c0-11.1-9-20-20-20H256v383.5h42.9c11.1,0,20-9,20-20V319h108.8c11.1,0,20-9,20-20v-85.9
		C447.8,202,438.8,193,427.7,193z"/>
</g>
</svg>
